PathFileType	4	(X/Y/Z)	C:/Users/beibeiliu/ov580/test_trc/User2\sequence.20_training_dense_left.trc
DataRate	CameraRate	NumFrames	NumMarkers	Units	OrigDataRate	OrigDataStartFrame	OrigNumFrames
120	120	11	19	mm	120	239	318
Frame#	Time	ThumbCMC			ThumbMCP			ThumbIP			ThumbTip			IndexMCP			IndexPIP			IndexTip			MiddleMCP			MiddlePIP			MiddleTip			RingMCP			RingPIP			RingTip			PinkyMCP			PinkyPIP			PinkyTip			BackHand1			BackHand2			BackHand3	
		X0	Y0	Z0	X1	Y1	Z1	X2	Y2	Z2	X3	Y3	Z3	X4	Y4	Z4	X5	Y5	Z5	X6	Y6	Z6	X7	Y7	Z7	X8	Y8	Z8	X9	Y9	Z9	X10	Y10	Z10	X11	Y11	Z11	X12	Y12	Z12	X13	Y13	Z13	X14	Y14	Z14	X15	Y15	Z15	X16	Y16	Z16	X17	Y17	Z17	X18	Y18	Z18	
238	1.98333	-161.811	16.3729	65.5923	-141.368	8.73841	37.725	-137.654	-20.5374	10.8437	-153.182	-47.5396	12.5605	-182.746	-13.7207	-9.31125	-184.626	-28.02	-35.754	-186.959	-40.5876	-58.112	-196.864	-34.8992	-12.7154	-196.822	-51.5651	-38.9608	-197.23	-63.0746	-67.456	-203.974	-50.8441	-2.3712	-202.649	-61.6328	-22.9564	-199.379	-73.2547	-50.1121	-206.762	-65.389	19.0276	-202.501	-73.9578	-4.70684	-202.879	-82.3816	-26.6194	-212.962	-27.3406	52.816	-223.776	-17.6147	77.2325	-199.22	7.24369	58.4671	
239	1.99167	-164.623	21.3349	67.0851	-145.235	14.8588	37.7087	-137.381	-10.7586	11.1164	-147.894	-41.9496	8.21369	-182.012	-11.5633	-8.85638	-180.122	-19.0362	-35.1327	-183.27	-34.7515	-59.7841	-192.364	-31.4669	-13.8948	-189.738	-46.3634	-40.4311	-189.498	-57.6285	-70.4451	-197.905	-49.5508	-2.108	-193.861	-58.9259	-29.4545	-189.379	-68.9191	-52.5447	-195.73	-60.9238	20.4559	-193.301	-71.6348	-9.98533	-191.97	-75.722	-28.834	-209.253	-32.4732	48.441	-221.357	-21.1733	79.6815	-202.287	6.13681	55.5529	
240	2	-166.225	23.1382	64.8963	-145.041	24.9115	38.5665	-134.38	0.769667	9.31688	-141.769	-29.9749	9.64271	-179.788	-5.88592	-10.1716	-178.774	-15.6343	-38.784	-177.935	-23.3019	-59.8944	-187.137	-29.6649	-18.6599	-183.113	-37.1689	-41.7583	-181.387	-46.4474	-75.5203	-189.286	-42.443	-7.43708	-185.32	-51.8577	-32.4024	-179.486	-60.3847	-61.7249	-188.82	-61.8563	11.9745	-183.933	-67.0245	-12.5991	-181.249	-68.3012	-36.6282	-205.136	-33.9156	47.4727	-213.418	-24.2905	75.3798	-201.993	6.21573	54.2622	
241	2.00833	-169.918	23.5294	70.2397	-148.249	31.3011	38.7072	-135.828	9.00486	7.23532	-136.157	-18.7343	7.66244	-178.149	2.70506	-11.1441	-175.894	-3.69342	-36.8227	-173.675	-14.7794	-61.9521	-182.925	-19.4159	-18.4524	-177.101	-25.4416	-47.3945	-173.938	-34.2346	-76.5811	-183.34	-38.7673	-10.2533	-178.615	-46.8603	-39.1908	-169.906	-47.2566	-67.0638	-178.238	-57.8418	8.91724	-173.618	-59.8237	-19.3889	-170.694	-62.4026	-41.9329	-199.022	-34.5397	45.0239	-208.922	-30.9562	74.5266	-199.845	0.888151	51.3399	
242	2.01667	-172.139	28.0448	70.0027	-154.314	34.1189	40.7296	-136.664	19.5297	10.5409	-134.188	-13.4166	4.88928	-177.213	8.39184	-13.7176	-174.243	1.4614	-39.0131	-170.773	-6.96881	-64.8682	-178.273	-15.8396	-20.5737	-171.973	-16.5559	-50.6187	-167.964	-24.98	-76.5593	-176.924	-37.4946	-11.3311	-170.283	-34.8029	-39.8156	-163.648	-39.1284	-69.4333	-169.889	-50.8489	5.9677	-164.933	-49.3461	-19.9925	-162.041	-52.698	-46.2836	-192.09	-30.9383	42.5737	-203.596	-31.7024	73.5592	-199.917	3.12598	51.8692	
243	2.025	-175.908	27.4439	71.5541	-158.457	41.497	42.6634	-140.67	24.6371	14.058	-133.492	-3.74237	8.11016	-178.128	8.20328	-11.1435	-174.135	3.66983	-36.3732	-170.837	-0.505056	-64.9751	-176.033	-11.4839	-20.5089	-170.058	-15.48	-48.9329	-164.411	-21.1996	-78.2802	-171.005	-33.2136	-9.46382	-166.464	-30.317	-36.3144	-159.115	-32.8096	-69.6557	-162.93	-47.0038	3.60109	-158.466	-47.3257	-20.6581	-155.221	-45.5925	-44.4467	-187.113	-31.5171	39.0389	-201.125	-32.8509	70.6446	-199.993	-3.03329	54.1873	
244	2.03333	-178.132	25.8281	70.7938	-164.852	44.9898	43.7736	-146.223	31.6424	15.3271	-136.217	-0.820855	7.58714	-181.473	9.76332	-7.84195	-178.738	4.69676	-33.9878	-175.451	3.57792	-63.2372	-178.809	-11.2815	-19.6301	-171.257	-16.1821	-47.2091	-167.576	-18.8449	-77.3917	-170.533	-29.7782	-11.3123	-164.944	-29.4279	-40.913	-160.101	-32.1437	-68.3703	-159.565	-46.5035	5.93147	-155.267	-46.7345	-18.1548	-155.261	-44.3517	-43.687	-185.071	-37.2662	43.4521	-198.137	-37.7422	69.7463	-200.384	-0.0923866	57.8606	
245	2.04167	-182.375	25.7034	74.503	-170.117	43.1671	39.6558	-151.715	34.2028	12.9932	-139.637	5.53515	8.29989	-187.481	6.4415	-9.17487	-186.204	3.66746	-35.7583	-186.26	0.833047	-63.4785	-184.152	-12.3238	-15.3921	-178.878	-16.8481	-46.4083	-176.757	-21.1695	-77.5134	-175.067	-29.9841	-11.8913	-170.015	-32.4779	-40.1228	-166.76	-32.8536	-65.5971	-159.864	-48.7487	6.13126	-158.214	-43.6333	-18.543	-161.01	-43.6319	-43.2904	-185.24	-37.7921	41.2396	-195.401	-39.9966	72.8763	-202.523	-4.17927	58.3872	
246	2.05	-185.529	26.2785	72.3317	-176.589	40.1184	39.0449	-159.9	31.8145	13.2028	-146.66	4.23578	6.35842	-196.583	2.78827	-9.08723	-198.968	-0.0984292	-36.05	-197.207	-7.34494	-62.0533	-193.019	-16.0263	-15.7815	-191.249	-18.5272	-48.9819	-192.212	-19.8249	-76.0105	-180.562	-37.5749	-9.44621	-181.163	-32.0874	-39.6262	-178.737	-34.9851	-68.1546	-165.544	-46.522	3.08756	-165.815	-44.1074	-23.0697	-167.88	-44.0212	-41.3535	-188.618	-37.618	42.0028	-194.263	-42.1429	77.4498	-203.994	-7.88601	56.8852	
247	2.05833	-189.02	21.7724	71.2442	-182.416	37.5725	41.8848	-168.905	26.2019	7.75365	-155.195	2.61874	3.9776	-208.617	1.93916	-6.20196	-211.23	-4.08916	-32.5163	-213.264	-9.41995	-59.4946	-201.57	-19.8694	-15.1743	-203.14	-21.7027	-45.1599	-205.449	-26.7858	-78.5685	-188.315	-39.3644	-8.26175	-189.584	-41.1906	-38.2026	-191.829	-39.8888	-68.0648	-170.273	-50.7516	4.69003	-173.394	-46.2303	-21.3761	-180.687	-45.5175	-42.6257	-189.508	-44.0928	43.7461	-195.059	-44.8435	76.7562	-207.129	-13.4106	63.2119	
248	2.06667	-195.523	22.4251	70.4458	-191.937	36.3813	39.0953	-177.78	26.0402	7.47387	-162.452	-2.53671	2.51513	-214.789	-5.8615	-2.47767	-222.114	-10.7738	-30.8624	-223.913	-20.2756	-57.6354	-208.357	-27.8922	-12.7266	-215.174	-27.1705	-45.5978	-218.16	-32.2893	-72.9247	-195.197	-41.9656	-6.86983	-200.009	-42.4041	-35.5091	-203.938	-43.051	-62.343	-174.749	-52.9184	6.18336	-179.466	-51.4847	-20.8843	-188.64	-54.0337	-45.5058	-192.48	-43.4426	44.8194	-196.935	-45.798	78.8981	-208.66	-15.1571	63.9002	
